Another of my bloat reductions  -  tt0083866

The original, un-retouched version of E.T., which many people seem to treasure over the retouched version, was only available as an 8 GB VIDEO_TS folder here:  
 
http://thepiratebay.org/torrent/5876817
=================================================
Death to Digital E. T.! Long live Puppet E. T.! 

This is the real thing: the movie Blockbuster, Netflix, and a hundred torrents didn\'t value you enough to let you see! This is the original 1982 version of E. T.: The Extra-Terrestrial. Government agents carry guns, Michael isn\'t allowed to dress as a terrorist, and best of all, NO DIGITAL E. T.! Blockbuster and Netflix were too stupid to carry it. Every torrent maker out there was too stupid to rip it. But this time, we got it right! Ripped straight from the 2-disc Collector\'s Edition, in its full uncompressed glory, here is the original E. T.! 

- by DVD Liberation	
=================================================

In this torrent you will find the movie in a 1.87 GB XviD AVI with Spanish and French audio tracks, two DVD extras, and English and Spanish subtitles.  If you want English audio tracks, I suggest you download this torrent instead:
 
http://thepiratebay.org/torrent/6490141

All of the \"unretouched\" touchstones are here:  The Feds carry shotguns, the \"terrorist\" dialog line is intact, ET running is just a light on a rail.


MediaInfo:

General
Complete name                    : ET_1982_SpanishFrench.avi
Format                           : AVI
Format/Info                      : Audio Video Interleave
File size                        : 1.87 GiB
Duration                         : 1h 54mn
Overall bit rate                 : 2 336 Kbps
Writing application              : VirtualDubMod 1.5.10.2 (build 2540/release)
Writing library                  : VirtualDubMod build 2540/release

Video
ID                               : 0
Format                           : MPEG-4 Visual
Format profile                   : Advanced Simple@L5
Format settings, BVOP            : 2
Format settings, QPel            : No
Format settings, GMC             : No warppoints
Format settings, Matrix          : Default (H.263)
Codec ID                         : XVID
Codec ID/Hint                    : XviD
Duration                         : 1h 54mn
Bit rate                         : 1 938 Kbps
Width                            : 704 pixels
Height                           : 368 pixels
Display aspect ratio             : 1.913
Frame rate                       : 23.976 fps
Color space                      : YUV
Chroma subsampling               : 4:2:0
Bit depth                        : 8 bits
Scan type                        : Progressive
Compression mode                 : Lossy
Bits/(Pixel*Frame)               : 0.312
Stream size                      : 1.55 GiB (83%)
Writing library                  : XviD 1.2.1 (UTC 2008-12-04)

Audio #1
ID                               : 1
Format                           : AC-3
Format/Info                      : Audio Coding 3
Format profile                   : Dolby Digital
Mode extension                   : CM (complete main)
Codec ID                         : 2000
Duration                         : 1h 54mn
Bit rate mode                    : Constant
Bit rate                         : 192 Kbps
Channel(s)                       : 2 channels
Channel positions                : Front: L R
Sampling rate                    : 48.0 KHz
Bit depth                        : 16 bits
Compression mode                 : Lossy
Stream size                      : 157 MiB (8%)
Alignment                        : Split accross interleaves
Interleave, duration             : 42 ms (1.00 video frame)
Interleave, preload duration     : 500 ms

Audio #2
ID                               : 2
Format                           : AC-3
Format/Info                      : Audio Coding 3
Format profile                   : Dolby Digital
Mode extension                   : CM (complete main)
Codec ID                         : 2000
Duration                         : 1h 54mn
Bit rate mode                    : Constant
Bit rate                         : 192 Kbps
Channel(s)                       : 2 channels
Channel positions                : Front: L R
Sampling rate                    : 48.0 KHz
Bit depth                        : 16 bits
Compression mode                 : Lossy
Stream size                      : 157 MiB (8%)
Alignment                        : Split accross interleaves
Interleave, duration             : 42 ms (1.00 video frame)
Interleave, preload duration     : 500 ms